<svg xmlns="http://www.w3.org/2000/svg" version="1.1" xmlns:xlink="http://www.w3.org/1999/xlink" xmlns:svgjs="http://svgjs.dev/svgjs" width="1440" height="560" preserveAspectRatio="none" viewBox="0 0 1440 560"><g mask="url(&quot;#SvgjsMask1007&quot;)" fill="none"><rect width="1440" height="560" x="0" y="0" fill="rgba(21, 67, 96, 1)"></rect><path d="M0,458.268C92.235,458.346,186.643,460.493,267.927,416.902C352.715,371.432,410.198,292.149,461.516,210.767C519.413,118.952,600.763,23.272,583.744,-83.93C566.735,-191.067,451.071,-247.473,376.29,-326.057C305.497,-400.45,256.474,-509.527,156.48,-532.922C56.995,-556.198,-32.232,-472.409,-130.559,-444.642C-230.251,-416.489,-352.768,-442.475,-425.391,-368.603C-498.302,-294.438,-483.143,-174.535,-497.379,-71.512C-511.531,30.907,-552.451,138.64,-508.409,232.182C-464.469,325.508,-361.888,374.533,-267.634,416.447C-183.424,453.895,-92.161,458.19,0,458.268" fill="#11364d"></path><path d="M1440 1158.192C1550.123 1142.6219999999998 1638.971 1074.3890000000001 1737.826 1023.427 1848.55 966.345 2017.351 959.648 2055.2889999999998 840.9929999999999 2094.484 718.407 1955.566 612.167 1907.49 492.78499999999997 1872.854 406.779 1857.612 318.31100000000004 1812.237 237.45499999999998 1756.624 138.35700000000003 1722.48 1.30600000000004 1613.538-31.017000000000053 1504.639-63.327999999999975 1402.647 35.52999999999997 1300.73 85.68900000000002 1215.867 127.45499999999998 1130.815 166.95 1067.862 237.541 1004.2819999999999 308.836 969.788 397.06100000000004 941.6410000000001 488.347 908.938 594.412 866.829 702.355 891.154 810.649 918.032 930.31 979.023 1050.452 1082.6390000000001 1116.0639999999999 1186.071 1181.56 1318.781 1175.3310000000001 1440 1158.192" fill="#195073"></path></g><defs><mask id="SvgjsMask1007"><rect width="1440" height="560" fill="#ffffff"></rect></mask></defs></svg>